HIERARCHY
ROOT Hips
{
	OFFSET -3.958830 18.904000 13.208200
	CHANNELS 6 Xposition Yposition Zposition Zrotation Yrotation Xrotation 
	JOINT LHipJoint
	{
		OFFSET 0.000000 0.000000 0.000000
		CHANNELS 3 Zrotation Yrotation Xrotation
		JOINT LeftUpLeg
		{
			OFFSET 1.800000 -1.400000 0.085000
			CHANNELS 3 Zrotation Yrotation Xrotation
			JOINT LeftLeg
			{
				OFFSET 2.215000 -6.000000 0.000000
				CHANNELS 3 Zrotation Yrotation Xrotation
				JOINT LeftFoot
				{
					OFFSET 2.500000 -6.900000 0.000000
					CHANNELS 3 Zrotation Yrotation Xrotation
					JOINT LeftToeBase
					{
						OFFSET 0.200000 -0.500000 1.950000
						CHANNELS 3 Zrotation Yrotation Xrotation
						End Site
						{
							OFFSET 0.000000 0.000000 0.000000
						}
					}
				}
			}
		}
	}
	JOINT RHipJoint
	{
		OFFSET 0.000000 0.000000 0.000000
		CHANNELS 3 Zrotation Yrotation Xrotation
		JOINT RightUpLeg
		{
			OFFSET -1.800000 -1.400000 0.085000
			CHANNELS 3 Zrotation Yrotation Xrotation
			JOINT RightLeg
			{
				OFFSET -2.215000 -6.000000 0.000000
				CHANNELS 3 Zrotation Yrotation Xrotation
				JOINT RightFoot
				{
					OFFSET -2.500000 -6.900000 0.000000
					CHANNELS 3 Zrotation Yrotation Xrotation
					JOINT RightToeBase
					{
						OFFSET -0.200000 -0.500000 1.950000
						CHANNELS 3 Zrotation Yrotation Xrotation
						End Site
						{
							OFFSET 0.000000 0.000000 0.000000
						}
					}
				}
			}
		}
	}
	JOINT LowerBack
	{
		OFFSET 0.000000 0.000000 0.000000
		CHANNELS 3 Zrotation Yrotation Xrotation
		JOINT Spine
		{
			OFFSET -0.087000 1.940000 -0.288900
			CHANNELS 3 Zrotation Yrotation Xrotation
			JOINT Spine1
			{
				OFFSET 0.000000 1.950000 0.060000
				CHANNELS 3 Zrotation Yrotation Xrotation
				JOINT Neck
				{
					OFFSET 0.000000 0.000000 0.000000
					CHANNELS 3 Zrotation Yrotation Xrotation
					JOINT Neck1
					{
						OFFSET 0.000000 1.600000 0.340000
						CHANNELS 3 Zrotation Yrotation Xrotation
						JOINT Head
						{
							OFFSET 0.000000 1.667000 -0.240000
							CHANNELS 3 Zrotation Yrotation Xrotation
							End Site
							{
								OFFSET 0.000000 0.000000 0.000000
							}
						}
					}
				}
				JOINT LeftShoulder
				{
					OFFSET 0.000000 0.000000 0.000000
					CHANNELS 3 Zrotation Yrotation Xrotation
					JOINT LeftArm
					{
						OFFSET 2.700000 1.550000 -0.730000
						CHANNELS 3 Zrotation Yrotation Xrotation
						JOINT LeftForeArm
						{
							OFFSET 5.450000 0.000000 0.000000
							CHANNELS 3 Zrotation Yrotation Xrotation
							JOINT LeftHand
							{
								OFFSET 3.450000 0.000000 0.000000
								CHANNELS 3 Zrotation Yrotation Xrotation
								JOINT LeftHandIndex1
								{
									OFFSET 0.750000 0.000000 0.000000
									CHANNELS 3 Zrotation Yrotation Xrotation
									End Site
									{
										OFFSET 0.000000 0.000000 0.000000
									}
								}
							}
						}
					}
				}
				JOINT RightShoulder
				{
					OFFSET 0.000000 0.000000 0.000000
					CHANNELS 3 Zrotation Yrotation Xrotation
					JOINT RightArm
					{
						OFFSET -2.700000 1.550000 -0.730000
						CHANNELS 3 Zrotation Yrotation Xrotation
						JOINT RightForeArm
						{
							OFFSET -5.450000 0.000000 0.000000
							CHANNELS 3 Zrotation Yrotation Xrotation
							JOINT RightHand
							{
								OFFSET -3.450000 0.000000 0.000000
								CHANNELS 3 Zrotation Yrotation Xrotation
								JOINT RightHandIndex1
								{
									OFFSET -0.750000 0.000000 0.000000
									CHANNELS 3 Zrotation Yrotation Xrotation
									End Site
									{
										OFFSET 0.000000 0.000000 0.000000
									}
								}
							}
						}
					}
				}
			}
		}
	}
}
MOTION
Frames: 12
Frame Time: 0.016667
0.143590 16.489010 -7.577790 -2.234583 -18.557605 1.213062 -15.400179 13.924262 3.317327 9.846738 -0.088286 11.610861 -7.810795 6.228188 0.986696 -0.400936 6.443863 2.588876 -0.092930 -0.439340 -0.083730 18.255224 -8.559226 3.369416 4.636330 2.944842 -34.114655 3.733351 -1.959308 -3.739099 0.082093 -0.947107 4.162817 -0.095150 0.434240 0.094840 -3.219290 -5.970484 -8.199547 7.561374 -13.803857 21.199730 -10.369062 -11.794355 12.512022 2.436393 -5.871126 -17.135071 -17.809340 12.108891 30.637469 -5.784740 8.781920 -26.587970 -15.897247 -25.671884 8.829248 -34.629222 -27.551323 0.958746 22.698848 0.539949 -2.665353 -4.135014 2.415917 1.072550 0.066130 0.008190 0.057290 11.234805 22.827462 10.820810 69.100291 6.530023 -21.282874 11.851940 55.739842 -1.362060 1.629399 -0.998175 -0.683680 0.664120 0.483620 -0.354850 
0.117900 16.480640 -7.521030 -3.073272 -19.125084 0.852195 -15.359719 13.893069 3.376376 10.785236 -0.296763 12.794537 -7.996324 6.372946 0.737720 -0.315868 6.563262 2.548039 -0.115280 -0.468380 -0.082910 18.277307 -8.602885 3.378432 5.057959 3.147388 -33.398830 4.155281 -2.034921 -3.210454 0.073938 -0.912166 4.192487 -0.140260 0.395300 0.076530 -3.302785 -5.822158 -8.267729 8.714696 -14.019149 22.177078 -10.332756 -11.846173 12.155874 2.841214 -5.541461 -18.003049 -17.817283 12.046607 32.335393 -5.938840 8.919450 -27.220340 -16.733829 -26.763721 9.401316 -33.979696 -26.509131 1.122614 21.381963 2.265610 -2.076004 -4.105523 2.380070 1.098540 0.026280 0.030900 0.044570 11.216864 23.881954 11.434985 69.126557 5.956610 -22.673052 10.720614 58.184846 -2.116243 1.636886 -0.978825 -0.674200 0.648590 0.476410 -0.360170 
0.052890 16.469480 -7.416140 -4.839750 -19.596174 1.023809 -15.372095 13.922109 3.439710 12.648829 -0.850572 14.061519 -7.891943 6.544781 0.369826 -0.216697 6.814614 2.444459 -0.180600 -0.567450 -0.099980 18.263406 -8.490763 3.403223 6.349360 3.829256 -32.248275 4.482045 -2.140330 -2.566130 0.070680 -0.877534 4.195835 -0.231990 0.375270 0.127660 -3.264955 -6.002888 -8.344761 10.742729 -14.646540 23.001210 -9.731828 -12.334329 11.453146 3.649014 -5.229231 -18.839289 -18.056398 13.015297 33.976584 -7.549430 10.349890 -27.244750 -18.129220 -27.596257 10.163883 -34.243356 -24.377247 1.390457 19.897469 3.885836 -1.517622 -4.116170 2.376923 1.123350 0.019070 0.053890 0.000860 10.971003 24.664894 11.774496 68.269350 5.330231 -23.625293 10.291983 59.566303 -2.276498 1.650602 -0.952331 -0.645850 0.585270 0.523690 -0.370100 
-0.032780 16.486860 -7.281040 -6.828264 -20.840568 0.995452 -15.351478 14.008258 3.489495 14.263804 -1.300373 15.774168 -7.038618 6.781962 0.643504 -0.098390 7.004671 2.370605 -0.251910 -0.672420 -0.106520 18.262913 -8.438454 3.452516 7.908107 4.631405 -30.743708 4.842065 -2.398361 -0.524685 0.072571 -0.822826 4.228333 -0.335470 0.326530 0.121040 -3.281310 -6.135515 -8.412189 13.693541 -15.407956 23.882760 -10.026258 -12.401950 10.267706 5.022852 -4.614939 -20.680631 -19.039840 14.291694 37.680786 -9.810950 12.121900 -25.864470 -20.258550 -29.050764 11.365122 -33.783200 -20.989867 1.935393 16.833466 6.314168 -0.685311 -4.070404 2.297406 1.162800 -0.019840 0.080620 -0.035560 10.262715 26.345317 12.616288 69.164779 4.379873 -25.440781 8.772073 61.405927 -3.342188 1.689091 -0.911867 -0.636200 0.536510 0.541750 -0.387920 
-0.159140 16.525320 -7.132190 -8.390720 -21.572695 0.912205 -15.406902 14.240874 3.544605 16.184749 -1.864303 16.789588 -6.539228 7.155508 1.814444 -0.019360 7.226719 2.287014 -0.283180 -0.738890 -0.067030 18.182344 -8.277925 3.518090 9.351943 5.428633 -29.040057 4.689493 -2.652317 1.835089 0.054215 -0.777781 4.254201 -0.404230 0.264360 0.100440 -3.040132 -6.689300 -8.559650 15.016684 -15.301576 24.638560 -9.148829 -11.895855 8.549738 6.289413 -3.575095 -21.870492 -19.587471 15.194350 42.728160 -11.617670 13.410320 -24.651140 -22.417026 -29.677100 11.824758 -34.919451 -18.438334 2.976142 13.569452 9.399244 0.061396 -4.001068 2.181443 1.224270 -0.068590 0.122690 -0.061840 9.950052 27.122834 13.412539 70.511091 2.534196 -27.323841 7.207710 62.593883 -4.319067 1.712428 -0.857954 -0.642020 0.516320 0.533840 -0.421220 
-0.290310 16.573680 -6.961800 -10.345091 -21.541643 1.861444 -15.479084 14.433937 3.491130 18.419946 -2.599882 16.532164 -5.380786 7.332527 3.023277 0.043459 7.302718 2.241208 -0.293440 -0.759540 -0.068400 18.118401 -8.012438 3.582056 10.827506 6.296788 -27.632735 4.873660 -2.831782 3.539228 0.033141 -0.790072 4.249254 -0.450710 0.213570 0.089170 -2.846574 -7.381499 -8.541871 17.663100 -16.515611 24.119556 -8.710275 -12.616238 6.210497 7.568963 -3.793678 -22.226124 -22.311002 16.853200 44.036831 -11.964630 14.330470 -22.956710 -23.597627 -28.885734 11.904784 -38.700119 -14.293064 3.270380 11.778489 9.539123 0.363587 -3.824572 2.234700 1.238230 -0.115780 0.148070 -0.069560 8.965876 26.844761 13.940350 72.446170 0.959997 -28.459729 8.195778 64.015156 -3.812241 1.764298 -0.878937 -0.611420 0.470160 0.519900 -0.417400 
-0.466760 16.622770 -6.772370 -11.011166 -22.848311 3.175964 -15.589123 14.743227 3.455534 19.245277 -2.920868 15.966400 -4.600626 7.497700 4.728800 0.082067 7.292159 2.231456 -0.315830 -0.792350 -0.085970 18.001344 -7.737005 3.706856 12.140524 7.085213 -26.776573 4.681082 -2.919696 4.972322 0.014198 -0.751396 4.276846 -0.503600 0.184470 0.058080 -2.488494 -8.284893 -8.593013 18.043785 -16.856949 23.134168 -7.266237 -12.695192 1.327798 8.885332 -3.948118 -22.091995 -25.627753 19.883533 46.598775 -10.676740 15.711530 -20.917700 -25.054953 -25.802947 11.435006 -44.544912 -7.834186 2.464781 11.423718 6.818160 0.331865 -3.622413 2.294489 1.281690 -0.171610 0.175870 -0.068760 8.801500 24.596725 14.359110 73.988380 -2.286146 -28.534284 12.812009 63.964726 -0.605588 1.819980 -0.859078 -0.605600 0.460630 0.514490 -0.412970 
-0.676620 16.679460 -6.581680 -10.159177 -25.947999 4.519978 -15.672998 15.095611 3.398077 17.867083 -2.463335 15.160912 -4.090647 7.586540 7.243735 0.102379 7.068110 2.281547 -0.277910 -0.741300 -0.076150 17.879041 -7.638344 3.900340 12.939033 7.707445 -26.530904 4.755893 -2.975149 6.334689 -0.019463 -0.710512 4.302468 -0.517780 0.121700 0.034900 -2.099921 -8.930961 -8.710526 16.387085 -15.314858 21.568392 -5.387139 -11.071334 -3.922898 10.014085 -3.883532 -21.922148 -28.794986 22.610686 50.002126 -8.857320 16.225080 -19.421950 -25.801121 -21.702106 10.565449 -50.093511 -2.349582 1.425387 11.604919 5.161390 0.390532 -3.490065 2.335114 1.312710 -0.240740 0.228210 -0.052330 8.740719 21.586968 14.702272 75.125713 -6.344064 -28.153731 16.773550 62.416567 2.405407 1.860788 -0.837219 -0.562120 0.437150 0.470120 -0.399710 
-0.886920 16.740420 -6.375960 -9.197538 -28.951149 6.113787 -15.708402 15.399512 3.290940 15.885951 -1.907694 13.740153 -3.290185 7.582694 10.325221 0.021987 6.866980 2.350696 -0.326350 -0.819700 -0.115180 17.795793 -7.655450 4.077805 13.536219 8.054652 -26.246251 4.744349 -2.973255 6.772303 -0.032055 -0.666138 4.333903 -0.568810 0.143250 0.003130 -1.825005 -9.340927 -8.724579 15.820893 -14.134080 19.597622 -4.412617 -9.418886 -10.491368 11.232263 -3.987143 -21.181391 -31.467881 25.648974 51.973877 -7.247950 17.023770 -19.102180 -25.467808 -15.303521 8.824356 -54.776842 3.417031 0.009976 11.245260 3.411101 0.283614 -3.469910 2.234387 1.398300 -0.286300 0.239940 -0.049060 7.612286 16.035112 14.647047 76.376573 -11.208212 -26.939346 24.838781 62.282696 8.007811 1.869494 -0.774481 -0.611490 0.488420 0.506500 -0.404690 
-1.116710 16.803090 -6.169490 -7.422702 -31.779684 7.418670 -15.673567 15.664311 3.181299 13.308328 -1.279497 11.312998 -2.597770 7.624606 14.654698 -0.061785 6.620838 2.408997 -0.336310 -0.844840 -0.116580 17.747656 -7.866825 4.228161 13.500892 7.987061 -26.162667 4.608304 -2.884831 6.731849 -0.049644 -0.596799 4.366021 -0.597100 0.139100 -0.020190 -1.650952 -9.384417 -8.728398 14.657325 -12.630646 16.605837 -3.504186 -7.785568 -16.917145 11.965442 -3.761434 -20.662943 -33.017421 28.748926 54.974580 -4.204000 17.796310 -18.066730 -24.816479 -8.809250 7.334401 -57.907461 10.030140 -1.878995 11.268243 1.690790 0.161896 -3.471518 2.123666 1.465890 -0.333510 0.269340 -0.051870 6.990021 9.909227 14.583751 76.413780 -17.011853 -25.596768 31.959455 61.847612 13.166745 1.864493 -0.697783 -0.629680 0.518440 0.515550 -0.410210 
-1.344100 16.855980 -5.979940 -5.115724 -34.738844 8.258336 -15.608078 15.867809 3.092150 10.400972 -0.651237 7.829308 -2.251794 8.058120 21.182892 -0.111279 6.595633 2.365589 -0.355050 -0.859940 -0.144010 17.710052 -8.215493 4.322702 12.664889 7.630814 -26.256104 4.864949 -2.894738 6.934382 -0.057433 -0.569960 4.382290 -0.616020 0.131770 -0.043900 -1.486538 -9.106019 -8.771810 12.252071 -10.943378 13.456976 -1.862008 -6.421258 -21.787850 12.362791 -3.846216 -20.288074 -33.880294 30.962748 57.249166 -1.644350 18.249570 -17.121810 -22.228373 -2.670110 6.371788 -61.500150 16.447311 -4.524440 10.852462 -1.259332 -0.210868 -3.475117 2.018145 1.512950 -0.371340 0.288610 -0.060400 4.726759 4.521451 14.419988 76.024504 -21.250940 -23.816638 36.877776 59.645928 16.444826 1.869674 -0.607709 -0.641340 0.535350 0.534540 -0.409960 
-1.564590 16.913530 -5.809430 -2.442203 -37.952696 7.961248 -15.509524 15.874278 3.097042 7.414361 -0.446651 3.791323 -2.267634 9.188918 30.175131 -0.024675 7.139889 2.116789 -0.341070 -0.841030 -0.122930 17.710970 -8.672113 4.305807 11.492445 6.866709 -25.726984 4.693614 -2.930232 7.258224 -0.090094 -0.592511 4.378499 -0.620310 0.103790 -0.058800 -1.399784 -8.396292 -8.866101 8.870943 -9.036174 10.741022 -0.265500 -5.445897 -25.128323 12.479028 -3.529993 -20.345167 -33.329394 32.294982 60.666657 0.306980 18.816510 -15.854140 -19.827217 1.552251 6.009885 -63.225904 21.714138 -6.563341 9.867731 -2.359674 -0.292961 -3.482563 1.918657 1.554120 -0.403370 0.325450 -0.064740 2.830981 0.484338 14.415981 75.547868 -24.840824 -22.645349 40.246584 56.770367 17.967449 1.876828 -0.515063 -0.638970 0.542180 0.521630 -0.420020 
